<svg width="40" height="43" viewBox="0 0 64 67" fill="none" xmlns="http://www.w3.org/2000/svg">
<rect width="64" height="67" rx="14" fill="#597E52"/>
<path d="M48.7835 20.8082C48.6456 20.6432 48.4732 20.5105 48.2784 20.4194C48.0837 20.3284 47.8713 20.2812 47.6562 20.2813H18.0389L17.1411 15.3499C17.0182 14.6731 16.6615 14.0609 16.1335 13.62C15.6054 13.1791 14.9393 12.9376 14.2514 12.9375H10.9375C10.548 12.9375 10.1744 13.0922 9.89894 13.3677C9.62349 13.6431 9.46875 14.0167 9.46875 14.4063C9.46875 14.7958 9.62349 15.1694 9.89894 15.4448C10.1744 15.7203 10.548 15.875 10.9375 15.875H14.2422L18.9348 41.6314C19.0731 42.3952 19.4106 43.109 19.9134 43.7005C19.2195 44.3486 18.7187 45.1762 18.4664 46.0916C18.2142 47.007 18.2204 47.9743 18.4844 48.8864C18.7483 49.7985 19.2598 50.6196 19.9619 51.2588C20.6641 51.8979 21.5295 52.3301 22.4623 52.5075C23.3951 52.6848 24.3588 52.6003 25.2465 52.2633C26.1342 51.9264 26.9113 51.3502 27.4915 50.5986C28.0717 49.847 28.4324 48.9494 28.5337 48.0053C28.6349 47.0612 28.4727 46.1075 28.065 45.25H36.4038C36.0752 45.9379 35.9052 46.6908 35.9062 47.4531C35.9062 48.4698 36.2077 49.4637 36.7726 50.3091C37.3375 51.1545 38.1403 51.8134 39.0796 52.2024C40.019 52.5915 41.0526 52.6933 42.0498 52.495C43.0469 52.2966 43.9629 51.807 44.6818 51.0881C45.4008 50.3692 45.8904 49.4532 46.0887 48.456C46.2871 47.4588 46.1853 46.4252 45.7962 45.4859C45.4071 44.5466 44.7482 43.7437 43.9029 43.1789C43.0575 42.614 42.0636 42.3125 41.0469 42.3125H23.2695C22.9255 42.3125 22.5925 42.1917 22.3284 41.9713C22.0644 41.7508 21.8861 41.4447 21.8246 41.1063L21.2426 37.9063H42.5395C43.5714 37.9061 44.5705 37.5438 45.3626 36.8825C46.1548 36.2212 46.6897 35.3029 46.8741 34.2876L49.1066 22.0125C49.1444 21.8004 49.1351 21.5825 49.0792 21.3744C49.0234 21.1662 48.9224 20.9729 48.7835 20.8082ZM41.0469 45.25C41.4826 45.25 41.9086 45.3792 42.2709 45.6213C42.6332 45.8634 42.9155 46.2075 43.0823 46.61C43.249 47.0126 43.2927 47.4556 43.2077 47.8829C43.1227 48.3103 42.9128 48.7029 42.6047 49.011C42.2966 49.3191 41.904 49.5289 41.4767 49.6139C41.0493 49.6989 40.6063 49.6553 40.2038 49.4885C39.8012 49.3218 39.4571 49.0394 39.215 48.6771C38.973 48.3148 38.8437 47.8889 38.8437 47.4531C38.8437 46.8688 39.0759 46.3084 39.489 45.8953C39.9022 45.4821 40.4626 45.25 41.0469 45.25ZM23.4219 45.25C23.8576 45.25 24.2836 45.3792 24.6459 45.6213C25.0082 45.8634 25.2905 46.2075 25.4573 46.61C25.624 47.0126 25.6677 47.4556 25.5827 47.8829C25.4977 48.3103 25.2878 48.7029 24.9797 49.011C24.6716 49.3191 24.279 49.5289 23.8517 49.6139C23.4243 49.6989 22.9813 49.6553 22.5788 49.4885C22.1762 49.3218 21.8321 49.0394 21.59 48.6771C21.348 48.3148 21.2187 47.8889 21.2187 47.4531C21.2187 46.8688 21.4509 46.3084 21.864 45.8953C22.2772 45.4821 22.8376 45.25 23.4219 45.25Z" fill="white"/>
</svg>
