<svg width="608" height="794" viewBox="0 0 608 794" fill="none" xmlns="http://www.w3.org/2000/svg">
<path fill-rule="evenodd" clip-rule="evenodd" d="M370.406 43.0192C415.084 20.849 466.618 -12.1772 513.44 5.01113C559.156 21.7938 553.722 97.4716 593.858 125.049C650.051 163.659 764.41 126.538 784.927 191.547C805.555 256.912 717.428 310.762 667.183 357.393C631.167 390.818 545.782 373.841 536.516 422.091C520.951 503.15 661.02 590.957 609.887 655.758C566.509 710.733 486.718 541.495 421.72 567.574C337.358 601.422 358.173 764.212 271.477 791.538C208.882 811.268 173.35 707.362 127.651 660.263C87.6051 618.989 37.5298 583.801 17.5881 529.865C-1.8844 477.198 4.57411 417.817 17.8389 363.255C29.5355 315.145 89.1595 284.4 89.302 234.888C89.5308 155.382 -49.3764 50.568 18.8563 9.73293C100.746 -39.2754 184.131 112.277 279.146 121.273C319.484 125.093 334.112 61.0291 370.406 43.0192Z" fill="#F1E4C3"/>
</svg>
